<svg width="56" height="56" viewBox="0 0 56 56" fill="none" xmlns="http://www.w3.org/2000/svg">
<g id="Group">
<path id="Vector" d="M55.5479 27.7738C55.5479 43.1129 43.1129 55.5479 27.7738 55.5479C12.4348 55.5479 0 43.1129 0 27.7738C0 12.4348 12.4348 0 27.7738 0C43.1129 0 55.5479 12.4348 55.5479 27.7738Z" fill="#F4F3F2"/>
<path id="Vector_2" d="M21.9805 12.8465C21.9805 9.64512 24.576 7.0498 27.7777 7.0498C30.9791 7.0498 33.5747 9.64512 33.5747 12.8465C33.5747 16.0477 30.9791 18.6432 27.7777 18.6432C24.576 18.6432 21.9805 16.0477 21.9805 12.8465Z" fill="#1E1E1E"/>
<path id="Vector_3" d="M30.563 22.5918C30.6216 21.3295 31.0558 20.1611 31.7551 19.1952C31.2643 19.0927 30.7572 19.0381 30.2369 19.0381H25.3183C24.7994 19.0381 24.2929 19.0921 23.8047 19.1936C24.549 20.2255 24.994 21.4858 25.0011 22.85C25.9055 22.3527 26.943 22.0696 28.045 22.0696C28.9394 22.0696 29.7907 22.2559 30.563 22.5918Z" fill="#1E1E1E"/>
<path id="Vector_4" d="M31.543 23.1125C33.2266 24.1685 34.4076 25.9546 34.6231 28.0285C35.3094 28.3489 36.0722 28.5341 36.8795 28.5341C39.8297 28.5341 42.2205 26.143 42.2205 23.1928C42.2205 20.2432 39.8296 17.8525 36.8795 17.8525C33.9569 17.8524 31.587 20.2005 31.543 23.1125Z" fill="#F06678"/>
<path id="Vector_5" d="M28.0444 34.049C30.994 34.049 33.385 31.6571 33.385 28.7079C33.385 25.759 30.9939 23.3672 28.0444 23.3672C25.0951 23.3672 22.7031 25.759 22.7031 28.7079C22.7031 31.657 25.0951 34.049 28.0444 34.049Z" fill="#F0EAD4"/>
<path id="Vector_6" d="M30.3121 34.4121H25.7805C22.0097 34.4121 18.9414 37.4808 18.9414 41.2513V46.794L18.9559 46.8805L19.3374 46.9995C22.936 48.1235 26.0622 48.4996 28.6358 48.4996C33.6614 48.4996 36.5755 47.0665 36.7551 46.9744L37.1117 46.794H37.1497V41.2513C37.1499 37.4808 34.0831 34.4121 30.3121 34.4121Z" fill="#F0EAD4"/>
<path id="Vector_7" d="M39.1463 28.8984H34.649C34.6 30.6981 33.8317 32.3187 32.6172 33.4832C35.9695 34.4801 38.421 37.5878 38.421 41.2592V42.9674C42.8613 42.8034 45.4202 41.5458 45.5883 41.4613L45.9455 41.2797H45.9834V35.7361C45.9839 31.966 42.9162 28.8984 39.1463 28.8984Z" fill="#F06678"/>
<path id="Vector_8" d="M18.6731 28.5341C19.718 28.5341 20.6897 28.229 21.5135 27.7096C21.7757 26.0019 22.6912 24.5096 23.9982 23.4934C24.0037 23.3934 24.0132 23.2943 24.0132 23.1931C24.0132 20.2431 21.6213 17.8525 18.6731 17.8525C15.7225 17.8525 13.332 20.2431 13.332 23.1931C13.332 26.1434 15.7225 28.5341 18.6731 28.5341Z" fill="#95EF1C"/>
<path id="Vector_9" d="M23.4682 33.4833C22.2589 32.3243 21.4939 30.7127 21.4375 28.9235C21.2709 28.9109 21.1058 28.8984 20.9362 28.8984H16.4049C12.6341 28.8984 9.56641 31.966 9.56641 35.737V41.2796L9.57991 41.3662L9.96205 41.4852C12.8485 42.3875 15.4251 42.8023 17.6634 42.9323V41.2586C17.6639 37.588 20.1156 34.4797 23.4682 33.4833Z" fill="#95EF1C"/>
<path id="Vector_10" d="M48.1541 35.051C48.1541 36.6981 47.1832 38.0332 45.9853 38.0332C44.7873 38.0332 43.8164 36.6981 43.8164 35.051C43.8164 33.4039 44.7873 32.0684 45.9853 32.0684C47.1832 32.0684 48.1541 33.4039 48.1541 35.051Z" fill="#1E1E1E"/>
<path id="Vector_11" d="M11.7327 35.051C11.7327 36.6981 10.7613 38.0332 9.56384 38.0332C8.36573 38.0332 7.39453 36.6981 7.39453 35.051C7.39453 33.4039 8.36573 32.0684 9.56384 32.0684C10.7613 32.0684 11.7327 33.4039 11.7327 35.051Z" fill="#1E1E1E"/>
</g>
</svg>
