<svg width="40" height="40" viewBox="0 0 40 40" fill="none" xmlns="http://www.w3.org/2000/svg">
<g id="simple-icons:codementor">
<path id="Vector" d="M14.145 24.8107C14.795 24.8107 15.3217 25.334 15.3217 25.9774C15.321 26.1312 15.2901 26.2835 15.2306 26.4254C15.1711 26.5673 15.0842 26.6961 14.975 26.8044C14.8657 26.9127 14.7362 26.9985 14.5938 27.0567C14.4514 27.115 14.2989 27.1447 14.145 27.144H9.38667C9.23266 27.1449 9.07999 27.1154 8.9374 27.0572C8.7948 26.9991 8.66507 26.9133 8.55563 26.805C8.44619 26.6966 8.35918 26.5678 8.29959 26.4257C8.24 26.2837 8.20899 26.1314 8.20833 25.9774C8.20833 25.334 8.73667 24.8107 9.38667 24.8107H14.145ZM15.295 20.489C15.945 20.489 16.4717 21.014 16.4717 21.6557C16.471 21.8097 16.44 21.9621 16.3804 22.1041C16.3208 22.2461 16.2338 22.375 16.1244 22.4833C16.0149 22.5917 15.8852 22.6774 15.7426 22.7356C15.6 22.7937 15.4473 22.8232 15.2933 22.8224H9.41333C9.25947 22.823 9.10698 22.7934 8.96457 22.7351C8.82217 22.6768 8.69264 22.5911 8.58337 22.4827C8.47411 22.3744 8.38725 22.2456 8.32776 22.1037C8.26828 21.9618 8.23732 21.8096 8.23667 21.6557C8.23667 21.0124 8.76333 20.489 9.41333 20.489H15.295ZM21.735 14.7224C21.7394 13.7904 22.1137 12.8984 22.7757 12.2423C23.4377 11.5863 24.333 11.22 25.265 11.224C25.7266 11.222 26.1841 11.311 26.6113 11.4858C27.0385 11.6607 27.4271 11.9179 27.7549 12.2429C28.0827 12.5679 28.3432 12.9543 28.5217 13.38C28.7002 13.8057 28.793 14.2624 28.795 14.724C28.7897 15.6563 28.4153 16.5485 27.7537 17.2054C27.0922 17.8623 26.1973 18.2304 25.265 18.229C24.3325 18.2299 23.4377 17.8615 22.7762 17.2043C22.1146 16.5472 21.7403 15.6548 21.735 14.7224ZM32.1667 25.654C32.3333 26.6857 31.5367 27.6207 30.4917 27.6174H20.0383C19.7928 27.6178 19.5502 27.5649 19.3272 27.4623C19.1042 27.3597 18.9061 27.2098 18.7468 27.0231C18.5875 26.8363 18.4706 26.6171 18.4044 26.3807C18.3382 26.1443 18.3242 25.8964 18.3633 25.654C18.8883 22.4174 20.6817 19.8057 23.0233 18.7707C23.709 19.1519 24.4805 19.3519 25.265 19.3519C26.0495 19.3519 26.821 19.1519 27.5067 18.7707C29.8483 19.8057 31.6433 22.4207 32.1667 25.654ZM17.6467 18.504C3.68 18.504 17.4017 18.5007 9.41167 18.5007C9.25766 18.5016 9.10499 18.4721 8.96239 18.4139C8.8198 18.3557 8.69007 18.27 8.58063 18.1616C8.47119 18.0533 8.38418 17.9244 8.32459 17.7824C8.265 17.6404 8.23399 17.488 8.23333 17.334C8.23333 16.6907 8.76167 16.1674 9.41167 16.1674L17.6467 16.169C18.2967 16.169 18.825 16.6924 18.8233 17.3374C18.8229 17.4913 18.7921 17.6436 18.7327 17.7856C18.6733 17.9276 18.5864 18.0565 18.4771 18.1649C18.3678 18.2733 18.2382 18.359 18.0957 18.4172C17.9532 18.4754 17.8006 18.5049 17.6467 18.504ZM9.41333 14.1807C9.25927 14.1818 9.1065 14.1524 8.9638 14.0943C8.82111 14.0363 8.69129 13.9505 8.58181 13.8421C8.47232 13.7337 8.38532 13.6048 8.32581 13.4627C8.2663 13.3206 8.23543 13.1681 8.235 13.014C8.235 12.3707 8.76333 11.8474 9.41333 11.8474H17.6467C18.295 11.8474 18.8217 12.369 18.8217 13.014C18.8199 13.3245 18.695 13.6215 18.4744 13.84C18.2538 14.0584 17.9555 14.1804 17.645 14.179L9.41333 14.1807ZM22.4283 31.0424C22.7186 31.0432 22.9974 30.929 23.2036 30.7247C23.4098 30.5204 23.5266 30.2426 23.5283 29.9524H35.295V8.95236H4.70667V29.9507H16.4717C16.4717 30.5524 16.9633 31.0407 17.5717 31.0407L22.4283 31.0424ZM40 29.9524V31.5474C40 32.5557 39.1733 33.374 38.1567 33.374H1.84333C0.826667 33.374 0 32.5574 0 31.5474V29.9524H2.355V8.92736C2.355 7.65569 3.39333 6.62402 4.67833 6.62402H35.3233C36.6067 6.62402 37.6467 7.65569 37.6467 8.92736V29.9524H40Z" fill="#1E1E1E"/>
</g>
</svg>
