<svg width="28" height="29" viewBox="0 0 28 29" fill="none" xmlns="http://www.w3.org/2000/svg">
<g id="uit:linkedin-alt">
<path id="Vector" d="M9.09626 11.1157H4.58275C4.43312 11.1157 4.28961 11.1752 4.18381 11.281C4.078 11.3868 4.01856 11.5303 4.01856 11.6799V25.2205C4.01856 25.3701 4.078 25.5136 4.18381 25.6194C4.28961 25.7252 4.43312 25.7847 4.58275 25.7847H9.09626C9.24589 25.7847 9.3894 25.7252 9.4952 25.6194C9.60101 25.5136 9.66045 25.3701 9.66045 25.2205V11.6799C9.66045 11.5303 9.60101 11.3868 9.4952 11.281C9.3894 11.1752 9.24589 11.1157 9.09626 11.1157ZM8.53207 24.6563H5.14694V12.2441H8.53207V24.6563ZM20.9442 11.1157C19.7199 11.1157 18.5295 11.5197 17.5591 12.2656V11.6799C17.5591 11.5303 17.4997 11.3868 17.3939 11.281C17.288 11.1752 17.1445 11.1157 16.9949 11.1157H12.4814C12.3318 11.1157 12.1883 11.1752 12.0825 11.281C11.9766 11.3868 11.9172 11.5303 11.9172 11.6799V25.2205C11.9172 25.3701 11.9766 25.5136 12.0825 25.6194C12.1883 25.7252 12.3318 25.7847 12.4814 25.7847H16.9949C17.1445 25.7847 17.288 25.7252 17.3939 25.6194C17.4997 25.5136 17.5591 25.3701 17.5591 25.2205V19.0144C17.5591 18.5655 17.7374 18.135 18.0548 17.8176C18.3723 17.5001 18.8028 17.3218 19.2517 17.3218C19.7006 17.3218 20.1311 17.5001 20.4485 17.8176C20.7659 18.135 20.9442 18.5655 20.9442 19.0144V25.2205C20.9442 25.3701 21.0037 25.5136 21.1095 25.6194C21.2153 25.7252 21.3588 25.7847 21.5084 25.7847H26.0219C26.1716 25.7847 26.3151 25.7252 26.4209 25.6194C26.5267 25.5136 26.5861 25.3701 26.5861 25.2205V16.7576C26.5843 15.2619 25.9893 13.8279 24.9317 12.7702C23.874 11.7125 22.44 11.1175 20.9442 11.1157ZM25.4577 24.6563H22.0726V19.0144C22.0726 18.2662 21.7754 17.5487 21.2464 17.0197C20.7173 16.4907 19.9998 16.1934 19.2517 16.1934C18.5035 16.1934 17.786 16.4907 17.257 17.0197C16.7279 17.5487 16.4307 18.2662 16.4307 19.0144V24.6563H13.0456V12.2441H16.4307V13.6016C16.4307 13.7184 16.467 13.8324 16.5345 13.9278C16.602 14.0231 16.6975 14.0952 16.8077 14.1339C16.918 14.1727 17.0375 14.1763 17.1499 14.1442C17.2622 14.1121 17.3619 14.0459 17.435 13.9547C18.0144 13.2203 18.8086 12.6849 19.7069 12.4233C20.6051 12.1618 21.5626 12.187 22.4458 12.4956C23.329 12.8041 24.0939 13.3806 24.6338 14.1446C25.1737 14.9086 25.4617 15.8221 25.4577 16.7576V24.6563ZM7.25475 3.21935C7.12216 3.21001 6.98911 3.20925 6.85643 3.21709C6.43415 3.18836 6.01048 3.24664 5.61164 3.38831C5.2128 3.52999 4.84731 3.75204 4.53778 4.04073C4.22826 4.32941 3.98131 4.67857 3.81222 5.06658C3.64314 5.45459 3.55552 5.87319 3.55479 6.29644C3.55129 6.71527 3.63386 7.13035 3.7974 7.51595C3.96093 7.90155 4.20194 8.24944 4.50547 8.53806C4.809 8.82667 5.16859 9.04985 5.56193 9.19376C5.95528 9.33767 6.37399 9.39924 6.79211 9.37465H6.82371C7.22787 9.40296 7.63365 9.35138 8.01788 9.22286C8.40211 9.09434 8.75726 8.8914 9.06306 8.62563C9.36886 8.35985 9.61932 8.03645 9.80013 7.67388C9.98095 7.31132 10.0886 6.91669 10.1169 6.51252C10.1452 6.10836 10.0936 5.70258 9.96508 5.31835C9.83656 4.93412 9.63363 4.57897 9.36785 4.27317C9.10208 3.96737 8.77868 3.71691 8.41611 3.5361C8.05354 3.35528 7.65891 3.24765 7.25475 3.21935ZM7.21525 8.24966C7.08495 8.26151 6.95379 8.26037 6.82371 8.24628H6.79211C6.52054 8.26669 6.2477 8.23025 5.99101 8.13929C5.73431 8.04833 5.4994 7.90485 5.30128 7.718C5.10316 7.53115 4.94617 7.30504 4.84035 7.0541C4.73452 6.80317 4.68218 6.53293 4.68667 6.26063C4.69116 5.98833 4.75238 5.71996 4.86642 5.47265C4.98046 5.22534 5.14482 5.00453 5.34899 4.82432C5.55317 4.6441 5.79268 4.50843 6.05223 4.42598C6.31179 4.34354 6.58568 4.31612 6.85643 4.34547C7.37416 4.29789 7.88958 4.45792 8.28932 4.79036C8.68905 5.12281 8.94035 5.60043 8.98794 6.11815C9.03552 6.63588 8.87549 7.15131 8.54304 7.55104C8.2106 7.95078 7.73298 8.20208 7.21525 8.24966Z" fill="black"/>
</g>
</svg>
